<svg xmlns="http://www.w3.org/2000/svg" xmlns:xlink="http://www.w3.org/1999/xlink" width="40" height="40" viewBox="0 0 40 40"><defs><style>.a{fill:#f5f5f5;stroke:rgba(112,112,112,0.25);}.b{clip-path:url(#a);}.c{fill:#fde0c2;}.d{fill:#ffcca1;}.e{fill:#e888ab;}.f{fill:#413f4f;}.g{fill:#98a3ac;}.h{fill:#e3e8ee;}.i{fill:#f3fbfe;}.j{fill:#ffbc8a;}.k{fill:#747a94;}.l{fill:#384169;}</style><clipPath id="a"><rect class="a" width="40" height="40" rx="8" transform="translate(26 294)"/></clipPath></defs><g class="b" transform="translate(-26 -294)"><g transform="translate(25.34 293.387)"><circle class="c" cx="0.742" cy="0.742" r="0.742" transform="translate(34.515 4.495)"/><path class="d" d="M35.464,4.536v.041a.915.915,0,0,1-.907.907h0a.755.755,0,0,0,.866.495A.7.7,0,0,0,36,5.361.7.7,0,0,0,35.464,4.536Z"/><path class="e" d="M35.258,3.753a.266.266,0,0,1-.247-.247V2.557a.247.247,0,1,1,.495,0v.948A.238.238,0,0,1,35.258,3.753ZM34.392,4a.227.227,0,0,1-.206-.124l-.495-.825a.313.313,0,0,1,.124-.371.223.223,0,0,1,.33.082l.495.825a.333.333,0,0,1-.124.371C34.474,3.959,34.433,4,34.392,4Zm-.619.619a.151.151,0,0,1-.124-.041l-.825-.495a.24.24,0,0,1,.247-.412l.825.495a.223.223,0,0,1,.082.33A.227.227,0,0,1,33.773,4.619Zm-.247.866h-.948a.247.247,0,0,1,0-.495h.948a.247.247,0,0,1,0,.495Zm-.619,1.361a.227.227,0,0,1-.206-.124.223.223,0,0,1,.082-.33l.825-.495a.24.24,0,0,1,.247.412l-.825.495A.151.151,0,0,1,32.907,6.845Zm.99.99h-.082a.223.223,0,0,1-.082-.33l.495-.825a.24.24,0,1,1,.412.247l-.495.825A.349.349,0,0,1,33.9,7.835Zm1.361.371a.266.266,0,0,1-.247-.247V7.01a.247.247,0,1,1,.495,0v.948A.219.219,0,0,1,35.258,8.206Zm1.361-.371a.227.227,0,0,1-.206-.124l-.495-.825a.24.24,0,1,1,.412-.247l.495.825a.223.223,0,0,1-.082.33A.152.152,0,0,1,36.619,7.835Zm.99-.99a.151.151,0,0,1-.124-.041l-.825-.495a.24.24,0,0,1,.247-.412l.825.495a.223.223,0,0,1,.082.33C37.814,6.8,37.732,6.845,37.608,6.845Zm.371-1.361h-.948a.247.247,0,0,1,0-.495h.948a.266.266,0,0,1,.247.247A.238.238,0,0,1,37.979,5.485Zm-1.2-.866a.227.227,0,0,1-.206-.124.223.223,0,0,1,.082-.33l.825-.495a.24.24,0,0,1,.247.412l-.825.495A.151.151,0,0,1,36.784,4.619ZM36.165,4a.151.151,0,0,1-.124-.041.229.229,0,0,1-.082-.33l.495-.825a.24.24,0,1,1,.412.247l-.495.825A.351.351,0,0,1,36.165,4Z"/><path class="f" d="M35.258,6.309a1.031,1.031,0,1,1,1.031-1.031A1.021,1.021,0,0,1,35.258,6.309Zm0-1.608a.577.577,0,1,0,.577.577A.564.564,0,0,0,35.258,4.7Z"/><path class="g" d="M36.784,13.938h0a.376.376,0,0,1-.495,0l-.536-.536a.376.376,0,0,1,0-.495h0a.376.376,0,0,1,.495,0l.536.536A.375.375,0,0,1,36.784,13.938Zm1.9,1.9h0a.376.376,0,0,1-.495,0l-.577-.577a.376.376,0,0,1,0-.495h0a.376.376,0,0,1,.495,0l.536.536A.389.389,0,0,1,38.68,15.835Zm-1.072-1.9h0a.376.376,0,0,1,0-.495l.536-.536a.376.376,0,0,1,.495,0h0a.376.376,0,0,1,0,.495l-.536.536A.375.375,0,0,1,37.608,13.938Zm-1.856,1.9h0a.376.376,0,0,1,0-.495l.536-.536a.376.376,0,0,1,.495,0h0a.376.376,0,0,1,0,.495l-.536.536A.375.375,0,0,1,35.753,15.835Z"/><circle class="g" cx="0.289" cy="0.289" r="0.289" transform="translate(36.907 14.062)"/><path class="g" d="M18.062,2.227h0a.376.376,0,0,1-.495,0l-.536-.536a.376.376,0,0,1,0-.495h0a.376.376,0,0,1,.495,0l.536.536A.375.375,0,0,1,18.062,2.227Zm1.856,1.9h0a.376.376,0,0,1-.495,0l-.536-.536a.376.376,0,0,1,0-.495h0a.376.376,0,0,1,.495,0l.536.536A.309.309,0,0,1,19.918,4.124Zm-1.031-1.9h0a.376.376,0,0,1,0-.495l.536-.536a.376.376,0,0,1,.495,0h0a.376.376,0,0,1,0,.495l-.536.536A.309.309,0,0,1,18.887,2.227Zm-1.9,1.9h0a.376.376,0,0,1,0-.495l.536-.536a.376.376,0,0,1,.495,0h0a.376.376,0,0,1,0,.495l-.536.536A.375.375,0,0,1,16.99,4.124Z"/><circle class="g" cx="0.289" cy="0.289" r="0.289" transform="translate(18.186 2.351)"/><circle class="c" cx="0.907" cy="0.907" r="0.907" transform="translate(36.948 29.031)"/><path class="d" d="M38.1,29.072v.082a1.092,1.092,0,0,1-1.072,1.072h0a.813.813,0,0,0,.99.577.878.878,0,0,0,.7-.7A.862.862,0,0,0,38.1,29.072Z"/><path class="f" d="M37.856,31.175a1.237,1.237,0,1,1,0-2.474,1.268,1.268,0,0,1,1.237,1.237A1.191,1.191,0,0,1,37.856,31.175Zm0-1.9a.66.66,0,1,0,.66.66A.628.628,0,0,0,37.856,29.278Z"/><path class="h" d="M14.351,20.33a.414.414,0,0,1-.412.247.777.777,0,0,1-.33-.082,2.557,2.557,0,0,1-.907-.7c-.206-.247-.536-.536-.454-.866.082-.289.412-.412.7-.495.577-.165,1.155-.412,1.732-.619.206-.082.412-.206.454-.371.124-.33-.206-.619-.536-.784-1.979-.948-4.619-.33-6.351-1.732-.371-.33-.7-.866-.412-1.278a.765.765,0,0,1,.495-.289c2.433-.948,5.155-.371,7.711-.784.289-.041.66-.124.784-.412.206-.412-.206-.907-.619-1.113a5.855,5.855,0,0,0-1.9-.495c-2.474-.33-5.155-.082-7.3-1.32a1.7,1.7,0,0,1-.7-.619c-.289-.66.412-1.113.907-1.32a3.77,3.77,0,0,1,2.021-.247c.495.041,1.031.124,1.526.206a6.358,6.358,0,0,0,1.526.124c.289-.041.577-.165.577-.495a1.535,1.535,0,0,0-.289-.825c-.247-.371-.495-.866-.206-1.2a1.068,1.068,0,0,0,.577.7,5.828,5.828,0,0,0,.907.247,4.317,4.317,0,0,1,1.2.495.8.8,0,0,1,.412.412.7.7,0,0,1-.124.742,1.884,1.884,0,0,1-.66.454,13.892,13.892,0,0,1-3.711.495c-.206.041-.412.041-.577.082-.124.041-.33,0-.454.082-.206.165.082.33.206.371a2.914,2.914,0,0,0,1.031.082h1.072c.7-.041,1.4-.082,2.144-.124.33,0,.7-.041,1.031-.041a9,9,0,0,1,4.784.948,2.394,2.394,0,0,1,1.361,1.856,2.235,2.235,0,0,1-1.443,1.814,6.7,6.7,0,0,1-2.845.66c-.495.041-.99,0-1.485,0a5.663,5.663,0,0,0-1.443-.082c-.124.041-.247.082-.289.206a.379.379,0,0,0,.041.412,1.184,1.184,0,0,0,.536.33c1.485.412,2.928.866,4.412,1.278a.915.915,0,0,1,.454.206.635.635,0,0,1,.082.66,1.851,1.851,0,0,1-.454.536c-1.443,1.072-3.505.907-5.155,1.649a.248.248,0,0,0-.371.206.728.728,0,0,0,.33.371C14.062,20,14.433,20.165,14.351,20.33Z"/><path class="i" d="M40.206,34.392c0,.866-2.144,1.608-5.649,2.186a90.82,90.82,0,0,1-13.814.907,90.431,90.431,0,0,1-13.814-.907C3.381,36,1.237,35.216,1.237,34.392,1.237,32.7,9.979,31.3,20.7,31.3,31.464,31.3,40.206,32.7,40.206,34.392Z"/><path class="h" d="M37.32,32.784c.619.289.99.619.99.99,0,.866-2.144,1.608-5.649,2.186a90.82,90.82,0,0,1-13.814.907,90.431,90.431,0,0,1-13.814-.907,26.593,26.593,0,0,1-2.763-.577,18.5,18.5,0,0,0,4.66,1.2,90.82,90.82,0,0,0,13.814.907,90.431,90.431,0,0,0,13.814-.907c3.505-.577,5.649-1.32,5.649-2.186C40.206,33.773,39.134,33.237,37.32,32.784Z"/><path class="i" d="M34.557,36.66c0,1.691-6.186,3.093-13.814,3.093S6.928,38.392,6.928,36.66v-.082a90.82,90.82,0,0,0,13.814.907,90.431,90.431,0,0,0,13.814-.907Z"/><path class="h" d="M33.773,36.66c-1.856,1.2-7.01,2.062-13.072,2.062S9.485,37.856,7.629,36.66l-.742-.124v.082c0,1.691,6.186,3.093,13.814,3.093s13.814-1.361,13.814-3.093v-.082Q34.206,36.6,33.773,36.66Z"/><path class="d" d="M22.1,21.237c.454.082.866.124,1.32.247a3.09,3.09,0,0,1,.66.206,10.624,10.624,0,0,0,5.32.412,1.253,1.253,0,0,1,1.443.907L31.67,25.9a1.319,1.319,0,0,1-.742,1.567,8.032,8.032,0,0,0-1.856.99,11.138,11.138,0,0,0-2.433,2.186,9.772,9.772,0,0,1-4.66,3.175A6.423,6.423,0,0,1,14.021,29.4a6.691,6.691,0,0,1,4.124-7.835A6.882,6.882,0,0,1,22.1,21.237Z"/><path class="j" d="M14.062,29.4a5.9,5.9,0,0,1-.124-2.68,6.41,6.41,0,0,0,7.588,3.464,10.5,10.5,0,0,0,4.66-3.175,12.3,12.3,0,0,1,2.433-2.186,13.232,13.232,0,0,1,1.856-.99,1.258,1.258,0,0,0,.536-.412l.7,2.474a1.319,1.319,0,0,1-.742,1.567,8.032,8.032,0,0,0-1.856.99,11.138,11.138,0,0,0-2.433,2.186,9.772,9.772,0,0,1-4.66,3.175A6.423,6.423,0,0,1,14.062,29.4Z"/><path class="i" d="M31.67,25.773l2.021-.577a.726.726,0,0,1,.784.289,1.651,1.651,0,0,0,1.979.577A1.634,1.634,0,0,0,37.4,24.33a1.475,1.475,0,0,0-.454-.907,1.154,1.154,0,0,1-.289-1.031,1.607,1.607,0,1,0-3.175-.412.669.669,0,0,1-.495.66l-.825.206-1.237.33.742,2.6"/><path class="h" d="M36.412,21.113l.124.247a1.142,1.142,0,0,1,.124.536A1.057,1.057,0,0,1,36.412,21.113ZM33.691,25.2l-2.021.577-.742-2.6.206-.041.33,1.2,2.021-.577a.726.726,0,0,1,.784.289,1.651,1.651,0,0,0,1.979.577,1.707,1.707,0,0,0,.907-.948,1.9,1.9,0,0,1,.289.66,1.634,1.634,0,0,1-.948,1.732,1.667,1.667,0,0,1-1.979-.577A.842.842,0,0,0,33.691,25.2Z"/><path class="d" d="M22.1,21.237c.454.082.866.124,1.32.247a3.09,3.09,0,0,1,.66.206,10.624,10.624,0,0,0,5.32.412,1.253,1.253,0,0,1,1.443.907L31.67,25.9a1.319,1.319,0,0,1-.742,1.567,8.032,8.032,0,0,0-1.856.99,11.138,11.138,0,0,0-2.433,2.186,9.772,9.772,0,0,1-4.66,3.175A6.423,6.423,0,0,1,14.021,29.4a6.691,6.691,0,0,1,4.124-7.835A6.882,6.882,0,0,1,22.1,21.237Z"/><path class="j" d="M14.062,29.4a5.9,5.9,0,0,1-.124-2.68,6.41,6.41,0,0,0,7.588,3.464,10.5,10.5,0,0,0,4.66-3.175,12.3,12.3,0,0,1,2.433-2.186,13.232,13.232,0,0,1,1.856-.99,1.258,1.258,0,0,0,.536-.412l.7,2.474a1.319,1.319,0,0,1-.742,1.567,8.032,8.032,0,0,0-1.856.99,11.138,11.138,0,0,0-2.433,2.186,9.772,9.772,0,0,1-4.66,3.175A6.423,6.423,0,0,1,14.062,29.4Z"/><path class="i" d="M31.67,25.773l2.021-.577a.726.726,0,0,1,.784.289,1.651,1.651,0,0,0,1.979.577A1.634,1.634,0,0,0,37.4,24.33a1.475,1.475,0,0,0-.454-.907,1.154,1.154,0,0,1-.289-1.031,1.607,1.607,0,1,0-3.175-.412.669.669,0,0,1-.495.66l-.825.206-1.237.33.742,2.6"/><path class="h" d="M36.412,21.113l.124.247a1.142,1.142,0,0,1,.124.536A1.057,1.057,0,0,1,36.412,21.113ZM33.691,25.2l-2.021.577-.742-2.6.206-.041.33,1.2,2.021-.577a.726.726,0,0,1,.784.289,1.651,1.651,0,0,0,1.979.577,1.707,1.707,0,0,0,.907-.948,1.9,1.9,0,0,1,.289.66,1.634,1.634,0,0,1-.948,1.732,1.667,1.667,0,0,1-1.979-.577A.842.842,0,0,0,33.691,25.2Z"/><path class="d" d="M22.1,21.237c.454.082.866.124,1.32.247a3.09,3.09,0,0,1,.66.206,10.624,10.624,0,0,0,5.32.412,1.253,1.253,0,0,1,1.443.907L31.67,25.9a1.319,1.319,0,0,1-.742,1.567,8.032,8.032,0,0,0-1.856.99,11.138,11.138,0,0,0-2.433,2.186,9.772,9.772,0,0,1-4.66,3.175A6.423,6.423,0,0,1,14.021,29.4a6.691,6.691,0,0,1,4.124-7.835A6.882,6.882,0,0,1,22.1,21.237Z"/><path class="j" d="M14.062,29.4a5.9,5.9,0,0,1-.124-2.68,6.41,6.41,0,0,0,7.588,3.464,10.5,10.5,0,0,0,4.66-3.175,12.3,12.3,0,0,1,2.433-2.186,13.232,13.232,0,0,1,1.856-.99,1.258,1.258,0,0,0,.536-.412l.7,2.474a1.319,1.319,0,0,1-.742,1.567,8.032,8.032,0,0,0-1.856.99,11.138,11.138,0,0,0-2.433,2.186,9.772,9.772,0,0,1-4.66,3.175A6.423,6.423,0,0,1,14.062,29.4Z"/><path class="i" d="M31.67,25.773l2.021-.577a.726.726,0,0,1,.784.289,1.651,1.651,0,0,0,1.979.577A1.634,1.634,0,0,0,37.4,24.33a1.475,1.475,0,0,0-.454-.907,1.154,1.154,0,0,1-.289-1.031,1.607,1.607,0,1,0-3.175-.412.669.669,0,0,1-.495.66l-.825.206-1.237.33.742,2.6"/><path class="h" d="M36.412,21.113l.124.247a1.142,1.142,0,0,1,.124.536A1.057,1.057,0,0,1,36.412,21.113ZM33.691,25.2l-2.021.577-.742-2.6.206-.041.33,1.2,2.021-.577a.726.726,0,0,1,.784.289,1.651,1.651,0,0,0,1.979.577,1.707,1.707,0,0,0,.907-.948,1.9,1.9,0,0,1,.289.66,1.634,1.634,0,0,1-.948,1.732,1.667,1.667,0,0,1-1.979-.577A.842.842,0,0,0,33.691,25.2Z"/><ellipse class="c" cx="2.515" cy="1.32" rx="2.515" ry="1.32" transform="matrix(0.975, -0.222, 0.222, 0.975, 17.59, 23.476)"/><path class="d" d="M19.216,23.753c.33-.289.66-.577,1.031-.866.206-.124.371-.289.577-.412a11.018,11.018,0,0,0,3.711-3.835,1.27,1.27,0,0,1,1.649-.536l2.763,1.2a1.256,1.256,0,0,1,.7,1.567,8.71,8.71,0,0,0-.412,2.062,10.808,10.808,0,0,0,.124,3.258,9.828,9.828,0,0,1-.495,5.608,6.431,6.431,0,0,1-8.454,3.34,6.723,6.723,0,0,1-3.423-8.165A7.222,7.222,0,0,1,19.216,23.753Z"/><path class="j" d="M20.412,35.175a6.383,6.383,0,0,1-2.144-1.608,6.405,6.405,0,0,0,7.505-3.67,9.828,9.828,0,0,0,.495-5.608,10.808,10.808,0,0,1-.124-3.258,11.413,11.413,0,0,1,.412-2.062,1.2,1.2,0,0,0,.041-.66l2.351,1.031a1.256,1.256,0,0,1,.7,1.567,8.71,8.71,0,0,0-.412,2.062,10.808,10.808,0,0,0,.124,3.258,9.828,9.828,0,0,1-.495,5.608A6.431,6.431,0,0,1,20.412,35.175Z"/><path class="i" d="M28.784,19.3l.825-1.938a.691.691,0,0,1,.742-.412,1.591,1.591,0,0,0,1.691-1.155,1.611,1.611,0,0,0-.742-1.856,1.724,1.724,0,0,0-.99-.206,1.154,1.154,0,0,1-.99-.412,1.992,1.992,0,0,0-.825-.577,1.634,1.634,0,0,0-1.567,2.763.705.705,0,0,1,.206.825l-.33.742-.536,1.2L28.784,19.3"/><path class="h" d="M28.247,12.66c.082,0,.206.041.289.041a1.394,1.394,0,0,1,.495.247A.9.9,0,0,1,28.247,12.66Zm1.361,4.7L28.784,19.3l-2.474-1.072.082-.165,1.113.495.825-1.938a.691.691,0,0,1,.742-.412,1.591,1.591,0,0,0,1.691-1.155,1.835,1.835,0,0,0-.165-1.32,1.52,1.52,0,0,1,.7.206,1.666,1.666,0,0,1,.742,1.856,1.635,1.635,0,0,1-1.691,1.155A.721.721,0,0,0,29.608,17.361Z"/><path class="d" d="M19.216,23.753c.33-.289.66-.577,1.031-.866.206-.124.371-.289.577-.412a11.018,11.018,0,0,0,3.711-3.835,1.27,1.27,0,0,1,1.649-.536l2.763,1.2a1.256,1.256,0,0,1,.7,1.567,8.71,8.71,0,0,0-.412,2.062,10.808,10.808,0,0,0,.124,3.258,9.828,9.828,0,0,1-.495,5.608,6.431,6.431,0,0,1-8.454,3.34,6.723,6.723,0,0,1-3.423-8.165A7.222,7.222,0,0,1,19.216,23.753Z"/><path class="j" d="M20.412,35.175a6.383,6.383,0,0,1-2.144-1.608,6.405,6.405,0,0,0,7.505-3.67,9.828,9.828,0,0,0,.495-5.608,10.808,10.808,0,0,1-.124-3.258,11.413,11.413,0,0,1,.412-2.062,1.2,1.2,0,0,0,.041-.66l2.351,1.031a1.256,1.256,0,0,1,.7,1.567,8.71,8.71,0,0,0-.412,2.062,10.808,10.808,0,0,0,.124,3.258,9.828,9.828,0,0,1-.495,5.608A6.431,6.431,0,0,1,20.412,35.175Z"/><path class="i" d="M28.784,19.3l.825-1.938a.691.691,0,0,1,.742-.412,1.591,1.591,0,0,0,1.691-1.155,1.611,1.611,0,0,0-.742-1.856,1.724,1.724,0,0,0-.99-.206,1.154,1.154,0,0,1-.99-.412,1.992,1.992,0,0,0-.825-.577,1.634,1.634,0,0,0-1.567,2.763.705.705,0,0,1,.206.825l-.33.742-.536,1.2L28.784,19.3"/><path class="h" d="M28.247,12.66c.082,0,.206.041.289.041a1.394,1.394,0,0,1,.495.247A.9.9,0,0,1,28.247,12.66Zm1.361,4.7L28.784,19.3l-2.474-1.072.082-.165,1.113.495.825-1.938a.691.691,0,0,1,.742-.412,1.591,1.591,0,0,0,1.691-1.155,1.835,1.835,0,0,0-.165-1.32,1.52,1.52,0,0,1,.7.206,1.666,1.666,0,0,1,.742,1.856,1.635,1.635,0,0,1-1.691,1.155A.721.721,0,0,0,29.608,17.361Z"/><path class="d" d="M19.216,23.753c.33-.289.66-.577,1.031-.866.206-.124.371-.289.577-.412a11.018,11.018,0,0,0,3.711-3.835,1.27,1.27,0,0,1,1.649-.536l2.763,1.2a1.256,1.256,0,0,1,.7,1.567,8.71,8.71,0,0,0-.412,2.062,10.808,10.808,0,0,0,.124,3.258,9.828,9.828,0,0,1-.495,5.608,6.431,6.431,0,0,1-8.454,3.34,6.723,6.723,0,0,1-3.423-8.165A7.222,7.222,0,0,1,19.216,23.753Z"/><path class="j" d="M20.412,35.175a6.383,6.383,0,0,1-2.144-1.608,6.405,6.405,0,0,0,7.505-3.67,9.828,9.828,0,0,0,.495-5.608,10.808,10.808,0,0,1-.124-3.258,11.413,11.413,0,0,1,.412-2.062,1.2,1.2,0,0,0,.041-.66l2.351,1.031a1.256,1.256,0,0,1,.7,1.567,8.71,8.71,0,0,0-.412,2.062,10.808,10.808,0,0,0,.124,3.258,9.828,9.828,0,0,1-.495,5.608A6.431,6.431,0,0,1,20.412,35.175Z"/><path class="i" d="M28.784,19.3l.825-1.938a.691.691,0,0,1,.742-.412,1.591,1.591,0,0,0,1.691-1.155,1.611,1.611,0,0,0-.742-1.856,1.724,1.724,0,0,0-.99-.206,1.154,1.154,0,0,1-.99-.412,1.992,1.992,0,0,0-.825-.577,1.634,1.634,0,0,0-1.567,2.763.705.705,0,0,1,.206.825l-.33.742-.536,1.2L28.784,19.3"/><path class="h" d="M28.247,12.66c.082,0,.206.041.289.041a1.394,1.394,0,0,1,.495.247A.9.9,0,0,1,28.247,12.66Zm1.361,4.7L28.784,19.3l-2.474-1.072.082-.165,1.113.495.825-1.938a.691.691,0,0,1,.742-.412,1.591,1.591,0,0,0,1.691-1.155,1.835,1.835,0,0,0-.165-1.32,1.52,1.52,0,0,1,.7.206,1.666,1.666,0,0,1,.742,1.856,1.635,1.635,0,0,1-1.691,1.155A.721.721,0,0,0,29.608,17.361Z"/><ellipse class="c" cx="2.515" cy="1.32" rx="2.515" ry="1.32" transform="translate(18.054 28.678) rotate(-63.332)"/><path class="d" d="M18.763,23.876a10.211,10.211,0,0,1,1.072.784c.165.165.371.33.536.495a10.825,10.825,0,0,0,4.619,2.639,1.277,1.277,0,0,1,.907,1.443L25.4,32.206a1.3,1.3,0,0,1-1.361,1.072,11.968,11.968,0,0,0-2.1.082,10.586,10.586,0,0,0-3.134.948,9.871,9.871,0,0,1-5.567.866,6.446,6.446,0,0,1-5.278-7.423,6.728,6.728,0,0,1,7.093-5.32A7.722,7.722,0,0,1,18.763,23.876Z"/><path class="j" d="M8,27.794A6.577,6.577,0,0,1,9.031,25.32a6.5,6.5,0,0,0,5.4,6.433A9.923,9.923,0,0,0,20,30.887a11.962,11.962,0,0,1,3.134-.948,11.968,11.968,0,0,1,2.1-.082,1.709,1.709,0,0,0,.66-.124l-.412,2.557a1.3,1.3,0,0,1-1.361,1.072,11.969,11.969,0,0,0-2.1.082,10.586,10.586,0,0,0-3.134.948,9.871,9.871,0,0,1-5.567.866A6.507,6.507,0,0,1,8,27.794Z"/><path class="i" d="M25.443,32.082l2.062.33a.7.7,0,0,1,.577.619,1.628,1.628,0,0,0,1.526,1.361,1.589,1.589,0,0,0,1.567-2.144,1.221,1.221,0,0,1,.165-1.072,1.775,1.775,0,0,0,.371-.948,1.6,1.6,0,0,0-1.155-1.608,1.645,1.645,0,0,0-1.9.784.664.664,0,0,1-.742.371l-.784-.124-1.278-.206-.412,2.639"/><path class="h" d="M31.711,29.938v.289a1.141,1.141,0,0,1-.124.536A1.4,1.4,0,0,1,31.711,29.938Zm-4.206,2.474-2.062-.33.454-2.639.206.041L25.9,30.722l2.062.33a.7.7,0,0,1,.577.619,1.628,1.628,0,0,0,1.526,1.361,1.588,1.588,0,0,0,1.237-.495,1.515,1.515,0,0,1-.041.742,1.6,1.6,0,0,1-1.608,1.155,1.628,1.628,0,0,1-1.526-1.361A.845.845,0,0,0,27.505,32.412Z"/><path class="d" d="M18.763,23.876a10.211,10.211,0,0,1,1.072.784c.165.165.371.33.536.495a10.825,10.825,0,0,0,4.619,2.639,1.277,1.277,0,0,1,.907,1.443L25.4,32.206a1.3,1.3,0,0,1-1.361,1.072,11.968,11.968,0,0,0-2.1.082,10.586,10.586,0,0,0-3.134.948,9.871,9.871,0,0,1-5.567.866,6.446,6.446,0,0,1-5.278-7.423,6.728,6.728,0,0,1,7.093-5.32A7.722,7.722,0,0,1,18.763,23.876Z"/><path class="j" d="M8,27.794A6.577,6.577,0,0,1,9.031,25.32a6.5,6.5,0,0,0,5.4,6.433A9.923,9.923,0,0,0,20,30.887a11.962,11.962,0,0,1,3.134-.948,11.968,11.968,0,0,1,2.1-.082,1.709,1.709,0,0,0,.66-.124l-.412,2.557a1.3,1.3,0,0,1-1.361,1.072,11.969,11.969,0,0,0-2.1.082,10.586,10.586,0,0,0-3.134.948,9.871,9.871,0,0,1-5.567.866A6.507,6.507,0,0,1,8,27.794Z"/><path class="i" d="M25.443,32.082l2.062.33a.7.7,0,0,1,.577.619,1.628,1.628,0,0,0,1.526,1.361,1.589,1.589,0,0,0,1.567-2.144,1.221,1.221,0,0,1,.165-1.072,1.775,1.775,0,0,0,.371-.948,1.6,1.6,0,0,0-1.155-1.608,1.645,1.645,0,0,0-1.9.784.664.664,0,0,1-.742.371l-.784-.124-1.278-.206-.412,2.639"/><path class="h" d="M31.711,29.938v.289a1.141,1.141,0,0,1-.124.536A1.4,1.4,0,0,1,31.711,29.938Zm-4.206,2.474-2.062-.33.454-2.639.206.041L25.9,30.722l2.062.33a.7.7,0,0,1,.577.619,1.628,1.628,0,0,0,1.526,1.361,1.588,1.588,0,0,0,1.237-.495,1.515,1.515,0,0,1-.041.742,1.6,1.6,0,0,1-1.608,1.155,1.628,1.628,0,0,1-1.526-1.361A.845.845,0,0,0,27.505,32.412Z"/><path class="d" d="M18.763,23.876a10.211,10.211,0,0,1,1.072.784c.165.165.371.33.536.495a10.825,10.825,0,0,0,4.619,2.639,1.277,1.277,0,0,1,.907,1.443L25.4,32.206a1.3,1.3,0,0,1-1.361,1.072,11.968,11.968,0,0,0-2.1.082,10.586,10.586,0,0,0-3.134.948,9.871,9.871,0,0,1-5.567.866,6.446,6.446,0,0,1-5.278-7.423,6.728,6.728,0,0,1,7.093-5.32A7.722,7.722,0,0,1,18.763,23.876Z"/><path class="j" d="M8,27.794A6.577,6.577,0,0,1,9.031,25.32a6.5,6.5,0,0,0,5.4,6.433A9.923,9.923,0,0,0,20,30.887a11.962,11.962,0,0,1,3.134-.948,11.968,11.968,0,0,1,2.1-.082,1.709,1.709,0,0,0,.66-.124l-.412,2.557a1.3,1.3,0,0,1-1.361,1.072,11.969,11.969,0,0,0-2.1.082,10.586,10.586,0,0,0-3.134.948,9.871,9.871,0,0,1-5.567.866A6.507,6.507,0,0,1,8,27.794Z"/><path class="i" d="M25.443,32.082l2.062.33a.7.7,0,0,1,.577.619,1.628,1.628,0,0,0,1.526,1.361,1.589,1.589,0,0,0,1.567-2.144,1.221,1.221,0,0,1,.165-1.072,1.775,1.775,0,0,0,.371-.948,1.6,1.6,0,0,0-1.155-1.608,1.645,1.645,0,0,0-1.9.784.664.664,0,0,1-.742.371l-.784-.124-1.278-.206-.412,2.639"/><path class="h" d="M31.711,29.938v.289a1.141,1.141,0,0,1-.124.536A1.4,1.4,0,0,1,31.711,29.938Zm-4.206,2.474-2.062-.33.454-2.639.206.041L25.9,30.722l2.062.33a.7.7,0,0,1,.577.619,1.628,1.628,0,0,0,1.526,1.361,1.588,1.588,0,0,0,1.237-.495,1.515,1.515,0,0,1-.041.742,1.6,1.6,0,0,1-1.608,1.155,1.628,1.628,0,0,1-1.526-1.361A.845.845,0,0,0,27.505,32.412Z"/><ellipse class="c" cx="1.32" cy="2.515" rx="1.32" ry="2.515" transform="translate(13.18 26.521) rotate(-77.362)"/><path class="k" d="M27.258,9.856a2.84,2.84,0,0,1-2.433-1.732C24.784,8,24.7,7.835,24.66,7.67c-.082,0-.165-.041-.247-.041a1.892,1.892,0,0,1-.907-.619,3.465,3.465,0,0,1-.495-2.845.315.315,0,0,1,.619.124A3.063,3.063,0,0,0,24,6.68a2.012,2.012,0,0,0,.536.412V6.969c-.165-1.443.412-1.979.948-2.186a1.349,1.349,0,0,1,1.567.371,1.552,1.552,0,0,1,.041,1.526A2.024,2.024,0,0,1,25.32,7.794a.313.313,0,0,0,.082.165A2,2,0,0,0,27.835,9.2a1.6,1.6,0,0,0,.619-.454.321.321,0,0,1,.454.454,2.724,2.724,0,0,1-.825.577A6.94,6.94,0,0,1,27.258,9.856Zm-1.278-4.7a.971.971,0,0,0-.33.082c-.165.082-.742.289-.577,1.567,0,.124.041.206.041.33a1.465,1.465,0,0,0,1.361-.784,1.089,1.089,0,0,0,0-.948A.54.54,0,0,0,25.979,5.155Z"/><path class="c" d="M4.371,7.464H4.289A2.939,2.939,0,0,0,1.361,4.536V4.454A2.939,2.939,0,0,0,4.289,1.526h.082A2.939,2.939,0,0,0,7.3,4.454v.082A2.939,2.939,0,0,0,4.371,7.464Z"/><path class="d" d="M4.784,3.052h0A1.848,1.848,0,0,1,2.928,4.907H2.763A2.9,2.9,0,0,1,4.289,7.464h.082A2.939,2.939,0,0,1,7.3,4.536V4.454A2.946,2.946,0,0,1,4.784,3.052Z"/><path class="c" d="M7.01,17.155l.041,1.155a.226.226,0,0,0,.165.247l.99.619a.311.311,0,0,1-.082.577l-1.072.412a.5.5,0,0,0-.206.206l-.289,1.113a.339.339,0,0,1-.577.124l-.7-.907a.374.374,0,0,0-.289-.124l-1.155.082a.313.313,0,0,1-.289-.495l.66-.948a.362.362,0,0,0,.041-.289l-.412-1.072a.355.355,0,0,1,.412-.454l1.113.33a.339.339,0,0,0,.289-.041l.907-.742C6.68,16.7,7.01,16.866,7.01,17.155Z"/><path class="d" d="M8.165,19.175l-.948-.619a.339.339,0,0,1-.165-.247L7.01,17.155a.3.3,0,0,0-.412-.289l-.124.866a2.355,2.355,0,0,1-2.639,1.979h0l-.289.454a.309.309,0,0,0,.289.495l1.155-.082a.374.374,0,0,1,.289.124l.7.907a.326.326,0,0,0,.577-.124l.289-1.113c.041-.124.124-.206.206-.206l1.072-.412A.317.317,0,0,0,8.165,19.175Z"/><path class="l" d="M31.711,31.423h0a2.022,2.022,0,0,0-.99-3.216.611.611,0,0,0-.289-.041,4.582,4.582,0,0,1,.66-.289,1.642,1.642,0,0,0,1.031-1.814l1.649-.454a.276.276,0,0,1,.33.124,1.985,1.985,0,0,0,1.691.866,1.787,1.787,0,0,0,.784-.165,2,2,0,0,0,1.2-2.186,2.23,2.23,0,0,0-.577-1.113.641.641,0,0,1-.165-.66,1.823,1.823,0,0,0-.124-1.237,2,2,0,0,0-2.186-1.2,2.02,2.02,0,0,0-1.691,1.9.31.31,0,0,1-.206.289l-1.649.454a1.722,1.722,0,0,0-1.32-.99c.041-.206.124-.454.165-.66a1.649,1.649,0,0,0-.742-1.938l.7-1.567c.041-.124.165-.165.33-.165a2.016,2.016,0,0,0,2.1-1.443,2.056,2.056,0,0,0-.907-2.309,2.12,2.12,0,0,0-1.237-.289.708.708,0,0,1-.619-.247,2.017,2.017,0,0,0-1.031-.7,2.056,2.056,0,0,0-2.309.907,2,2,0,0,0,.371,2.515.269.269,0,0,1,.082.33l-.7,1.567a1.746,1.746,0,0,0-1.938.784,10.141,10.141,0,0,1-1.856,2.351.151.151,0,0,1-.124-.041h0a7.566,7.566,0,0,0-4.165.33,6.629,6.629,0,0,0-1.9,1.072,8.931,8.931,0,0,0-1.031-.165A7.163,7.163,0,0,0,7.505,27.67,6.91,6.91,0,0,0,8,31.546c-4.041.66-7.175,1.526-7.175,2.845,0,.412,0,1.567,5.691,2.515.536,2.144,7.423,3.216,14.227,3.216s13.691-1.113,14.227-3.216c5.691-.948,5.691-2.144,5.691-2.515C40.619,32.907,36.619,31.959,31.711,31.423Zm1.361-8.412a1.153,1.153,0,0,0,.825-1.031,1.209,1.209,0,0,1,2.309-.412,1.535,1.535,0,0,1,.082.742,1.463,1.463,0,0,0,.412,1.4,1.257,1.257,0,0,1,.33.66,1.186,1.186,0,0,1-2.144.866,1.369,1.369,0,0,0-1.031-.495.7.7,0,0,0-.289.041l-1.649.454-.041-.165-.454-1.608Zm-3.423,0a2.838,2.838,0,0,1,.082-.536.89.89,0,0,1,.742.619l.041.165h0l.536,1.9.247.825a.918.918,0,0,1-.495,1.072c-.289.124-.577.247-.825.371-.041-.454-.082-.866-.165-1.32A8.6,8.6,0,0,1,29.649,23.01Zm.825,6.021a1.291,1.291,0,0,1,.866,1.2,1.437,1.437,0,0,1-.247.7,1.519,1.519,0,0,0-.247,1.443,1.144,1.144,0,0,1,0,.742,1.291,1.291,0,0,1-1.2.866,1.275,1.275,0,0,1-1.155-.99,1.141,1.141,0,0,0-.907-.948l-1.649-.289.247-1.608.041-.247,1.691.289a1.2,1.2,0,0,0,1.2-.577A1.1,1.1,0,0,1,30.474,29.031Zm-2.8,4A6.139,6.139,0,0,1,25.2,34.887a5.982,5.982,0,0,1-4.619-.082,6.673,6.673,0,0,1-.742-.412,13.113,13.113,0,0,1,2.186-.577,11.051,11.051,0,0,1,2.021-.082,1.733,1.733,0,0,0,1.732-1.2l1.691.289A.339.339,0,0,1,27.67,33.031Zm-.619-19.381a1.217,1.217,0,0,1,1.361-.536,1.267,1.267,0,0,1,.619.412,1.459,1.459,0,0,0,1.361.577,1.2,1.2,0,0,1,1.278,1.526,1.2,1.2,0,0,1-1.237.866,1.136,1.136,0,0,0-1.155.66l-.66,1.567-1.691-.742.66-1.567a1.08,1.08,0,0,0-.289-1.278A1.1,1.1,0,0,1,27.052,13.649Zm-2.144,5.237a.908.908,0,0,1,1.113-.371l.165.082h0L28.66,19.67h0l.165.082a.878.878,0,0,1,.495,1.072,12.383,12.383,0,0,0-.454,2.144,10.376,10.376,0,0,0,.165,3.381,9.051,9.051,0,0,1,.165,2.1,1.985,1.985,0,0,0-.825.825.3.3,0,0,1-.33.165l-1.691-.289a1.733,1.733,0,0,0-1.237-1.691,11.585,11.585,0,0,1-4.99-3.052l-.495-.371c.082-.082.165-.124.247-.206C21.2,22.639,23.216,21.856,24.907,18.887Zm-6.557,3.052a6.7,6.7,0,0,1,3.175-.371,31.743,31.743,0,0,0-2.557,1.9l-.041.041a9.136,9.136,0,0,0-1.773-.948A5.455,5.455,0,0,1,18.351,21.938ZM8.412,27.876a6.338,6.338,0,0,1,6.639-4.99,8.063,8.063,0,0,1,4.536,2.1,12.524,12.524,0,0,0,5.278,3.216.875.875,0,0,1,.619.99l-.041.165h0L24.99,32h0v.165a.891.891,0,0,1-.907.742,12.759,12.759,0,0,0-2.186.082,12.077,12.077,0,0,0-3.216.948,9.819,9.819,0,0,1-5.32.866,5.867,5.867,0,0,1-3.918-2.433A5.993,5.993,0,0,1,8.412,27.876ZM20.7,39.34c-7.258,0-12.082-1.2-13.2-2.268a4.063,4.063,0,0,0,.7.082.372.372,0,0,1,.206.041c.165.041.371.041.536.082.082,0,.206.041.289.041.165,0,.33.041.495.041.124,0,.206.041.33.041.165,0,.289.041.454.041.124,0,.206.041.33.041.165,0,.33.041.454.041a1.142,1.142,0,0,1,.371.041c.165,0,.33.041.454.041a1.142,1.142,0,0,1,.371.041c.165,0,.33.041.495.041a1.142,1.142,0,0,1,.371.041,2.008,2.008,0,0,1,.495.041,1.142,1.142,0,0,1,.371.041,2.008,2.008,0,0,1,.495.041h.412a2.008,2.008,0,0,1,.495.041H25.773a2.008,2.008,0,0,0,.495-.041h.371a2.008,2.008,0,0,0,.495-.041,1.142,1.142,0,0,0,.371-.041A2.008,2.008,0,0,0,28,37.732a1.142,1.142,0,0,0,.371-.041c.165,0,.33-.041.495-.041a1.142,1.142,0,0,0,.371-.041c.165,0,.33-.041.495-.041a.8.8,0,0,0,.33-.041c.165,0,.33-.041.495-.041a.908.908,0,0,0,.33-.041c.165,0,.33-.041.454-.041s.206-.041.33-.041c.165,0,.33-.041.495-.041a.805.805,0,0,0,.289-.041c.165-.041.371-.041.536-.082a.372.372,0,0,0,.206-.041,4.063,4.063,0,0,1,.7-.082h.041C32.866,38.1,28.041,39.34,20.7,39.34Zm13.773-3.175a93.009,93.009,0,0,1-13.773.907H18.763a84.972,84.972,0,0,1-11.835-.907h0c-4.33-.7-5.278-1.526-5.278-1.773,0-.577,2.309-1.4,6.845-1.979a2.774,2.774,0,0,0,.289.454,6.769,6.769,0,0,0,4.454,2.763,6.825,6.825,0,0,0,1.32.124,10.241,10.241,0,0,0,4.371-.99,5.315,5.315,0,0,0,1.32.784,7.012,7.012,0,0,0,2.722.577,6.668,6.668,0,0,0,2.515-.495A6.4,6.4,0,0,0,28,33.9a2.082,2.082,0,0,0,1.567.907h.082a2.029,2.029,0,0,0,1.938-1.443,1.716,1.716,0,0,0,0-1.113c5.361.577,8.124,1.526,8.124,2.144C39.794,34.639,38.845,35.464,34.474,36.165ZM1.361,4.742a2.976,2.976,0,0,1,1.32.33,1.793,1.793,0,0,0,.289.165l.082.041c.082.041.124.124.206.165l.041.041a1.093,1.093,0,0,1,.206.247l.165-.124-.124.165a.9.9,0,0,0,.165.206V6.1l.124.247.206-.082-.165.124c.041.082.082.206.124.289l.041.082a.523.523,0,0,1,.041.247v.082c0,.124.041.206.041.33v.041a.189.189,0,0,0,.206.165h.082a.2.2,0,0,0,.206-.206A2.746,2.746,0,0,1,7.34,4.7a.2.2,0,0,0,.206-.206V4.412a.2.2,0,0,0-.206-.206.908.908,0,0,1-.33-.041H6.928c-.082,0-.165-.041-.247-.041H6.639a2.089,2.089,0,0,1-.619-.289c-.082-.041-.165-.124-.289-.206a1.859,1.859,0,0,1-.784-.7,2.742,2.742,0,0,1-.371-1.4.2.2,0,0,0-.206-.206H4.289a.2.2,0,0,0-.206.206A2.746,2.746,0,0,1,1.361,4.247a.2.2,0,0,0-.206.206v.082A.2.2,0,0,0,1.361,4.742ZM4.33,2.557a2.519,2.519,0,0,0,.289.577,3.365,3.365,0,0,0,.825.907c.082.082.206.124.289.206l.041.041c.165.082.371.165.536.247A3.12,3.12,0,0,0,4.371,6.474c-.041-.082-.041-.165-.082-.206l-.082-.082A1.034,1.034,0,0,0,4.041,5.9c0-.041-.041-.041-.041-.082-.041-.082-.124-.165-.206-.289l-.041-.041C3.67,5.4,3.588,5.278,3.505,5.2l-.041-.041c-.082-.082-.165-.124-.247-.206l-.082-.041A2.3,2.3,0,0,0,2.8,4.7a2.523,2.523,0,0,0-.495-.206A2.978,2.978,0,0,0,4.33,2.557Zm.742,18.268.7.907a.573.573,0,0,0,.412.206h.124a.544.544,0,0,0,.412-.371l.289-1.113a.089.089,0,0,1,.082-.082l1.072-.412a.594.594,0,0,0,.371-.454.47.47,0,0,0-.247-.495l-.99-.619c-.041-.041-.041-.041-.041-.082l-.041-1.155a.482.482,0,0,0-.33-.454.579.579,0,0,0-.577.082l-.907.742a.151.151,0,0,1-.124.041l-1.113-.33a.515.515,0,0,0-.536.165.716.716,0,0,0-.124.577l.412,1.072v.124l-.66.948a.606.606,0,0,0,.041.454.572.572,0,0,0,.495.289l1.155-.082C5.031,20.784,5.031,20.825,5.072,20.825Zm-1.278-.371c-.082,0-.124-.041-.124-.082,0,0-.041-.082,0-.124l.66-.948a.531.531,0,0,0,.041-.495l-.412-1.072c-.041-.082,0-.124.041-.124a.181.181,0,0,1,.124-.041l1.113.33a.675.675,0,0,0,.495-.082l.907-.742c.041-.041.124-.041.124,0,.041,0,.082.041.082.124l.041,1.155a.57.57,0,0,0,.247.454l.99.619a.151.151,0,0,1,.041.124c0,.041,0,.082-.082.082l-1.072.412a.5.5,0,0,0-.33.371l-.371,1.031a.081.081,0,0,1-.082.082.151.151,0,0,1-.124-.041l-.7-.907a.508.508,0,0,0-.412-.206H4.948Zm.536,2.268.454-.99c.041-.124,0-.206-.124-.289-.124-.041-.206,0-.289.124l-.454.99c-.041.124,0,.206.124.289A.252.252,0,0,0,4.33,22.722Zm-.412.412c-.124-.041-.206,0-.289.124l-.165.412c-.041.124,0,.206.124.289.124.041.206,0,.289-.124l.165-.412A.213.213,0,0,0,3.918,23.134Zm4.495-1.155a.2.2,0,1,0,.289-.289l-.784-.7a.2.2,0,1,0-.289.289Zm.536.206a.2.2,0,0,0,0,.289l.33.289a.2.2,0,1,0,.289-.289l-.33-.289A.2.2,0,0,0,8.948,22.186ZM8.289,18.1l.948-.536a.212.212,0,1,0-.206-.371l-.948.536A.237.237,0,0,0,8,18.021.273.273,0,0,0,8.289,18.1ZM9.9,17.2l.371-.206a.212.212,0,1,0-.206-.371l-.371.206A.212.212,0,1,0,9.9,17.2ZM4.866,15.505l.206,1.031a.21.21,0,0,0,.412-.082l-.206-1.031a.226.226,0,0,0-.247-.165A.278.278,0,0,0,4.866,15.505Zm.165-1.237a.21.21,0,1,0-.412.082l.082.412a.21.21,0,1,0,.412-.082ZM3.093,18.639l-1.072-.124a.278.278,0,0,0-.247.165.278.278,0,0,0,.165.247l1.072.124a.278.278,0,0,0,.247-.165C3.3,18.722,3.216,18.639,3.093,18.639Zm-1.608,0a.278.278,0,0,0-.165-.247l-.412-.041a.278.278,0,0,0-.247.165.278.278,0,0,0,.165.247l.412.041C1.361,18.845,1.443,18.763,1.485,18.639Z"/></g></g></svg>