<svg xmlns="http://www.w3.org/2000/svg" xmlns:xlink="http://www.w3.org/1999/xlink" width="16" height="16" viewBox="0 0 16 16"><defs><style>.a{fill:#fff;stroke:#707070;}.b{clip-path:url(#a);}.c{fill:#593a25;}.d{fill:#ffb612;}</style><clipPath id="a"><rect class="a" width="16" height="16" rx="5"/></clipPath></defs><g class="b"><g transform="translate(1.5 0)"><path class="c" d="M9.141,17.141a4.179,4.179,0,0,1-2.646-1.055,9.165,9.165,0,0,1-2.02-2.453A12.866,12.866,0,0,1,2.641,7.641a6.422,6.422,0,0,1,.513-2.522A6.506,6.506,0,0,1,9.141,1.141a6.428,6.428,0,0,1,2.527.515,6.569,6.569,0,0,1,3.461,3.463,6.415,6.415,0,0,1,.514,2.526,12.913,12.913,0,0,1-1.828,5.992,9.286,9.286,0,0,1-2.022,2.452A4.211,4.211,0,0,1,9.141,17.141Zm0-15a5.5,5.5,0,0,0-5.5,5.5,11.818,11.818,0,0,0,1.693,5.484,8.271,8.271,0,0,0,1.793,2.187,3.212,3.212,0,0,0,2.011.828,3.18,3.18,0,0,0,2.011-.828,8.271,8.271,0,0,0,1.793-2.187,11.806,11.806,0,0,0,1.693-5.484,5.5,5.5,0,0,0-5.495-5.5Z" transform="translate(-2.641 -1.141)"/><path class="d" d="M9.141,9.643A2.293,2.293,0,1,1,11.433,7.35,2.293,2.293,0,0,1,9.141,9.643Zm0-3.58A1.289,1.289,0,1,0,10.43,7.352,1.289,1.289,0,0,0,9.141,6.063Z" transform="translate(-2.641 -1.141)"/></g></g></svg>