<svg xmlns="http://www.w3.org/2000/svg" xmlns:xlink="http://www.w3.org/1999/xlink" width="24" height="24" viewBox="0 0 24 24"><defs><style>.a{fill:#fff;stroke:#707070;}.b{clip-path:url(#a);}.c{fill:#707070;opacity:0.5;}</style><clipPath id="a"><rect class="a" width="24" height="24" transform="translate(3520 7062)"/></clipPath></defs><g class="b" transform="translate(-3520 -7062)"><g transform="translate(3518.286 7060.286)"><path class="c" d="M16.52,24.211H15.012V20.405a1.3,1.3,0,0,0-2.592,0v3.806H10.911V20.405a2.8,2.8,0,0,1,5.609,0Z"/><path class="c" d="M19.724,25.714H7.707a3.653,3.653,0,0,1-2.785-1.382,4.881,4.881,0,0,1-1.1-3.131V10.5A4.711,4.711,0,0,1,5.608,6.714L11.176,2.44a3.549,3.549,0,0,1,2.17-.725,3.766,3.766,0,0,1,1.938.571l.032.022,6.368,4.435a4.594,4.594,0,0,1,1.92,3.87V21.2a4.884,4.884,0,0,1-1.1,3.131A3.648,3.648,0,0,1,19.724,25.714ZM13.345,3.223a2.057,2.057,0,0,0-1.245.411h0L6.507,7.91A3.253,3.253,0,0,0,5.329,10.5V21.2c0,1.628,1.1,3,2.378,3H19.724c1.288,0,2.378-1.371,2.378-3V10.609A3.123,3.123,0,0,0,20.851,8l-.022-.014-6.361-4.43a2.29,2.29,0,0,0-1.123-.332Z"/></g></g></svg>